# Exported from ProBuilder
# http://www.procore3d.com/probuilder
# 11/12/2018 1:16:53 AM

mtllib ./SlopeAngle.mtl
o SlopeAngle

g SlopeAngle (1)
v -0.5 -0.5 0.5
v 0.5 -0.5 0.5
v -0.5 -0.5 -0.5
v 0.5 -0.5 -0.5
v 0.5 -0.5 0.5
v -0.5 -0.5 0.5
v -0.5 0.5 0.5
v -0.5 -0.5 0.5
v -0.5 -0.5 -0.5
v -0.5 0.5 0.5
v 0.5 -0.5 -0.5
v 0.5 -0.5 0.5
v -0.5 0.5 0.5
v 0.5 -0.5 -0.5
v -0.5 -0.5 -0.5
v -0.5 0.5 0.5

vn 0 -1 0
vn 0 -1 0
vn 0 -1 0
vn 0 -1 0
vn 0 0 1
vn 0 0 1
vn 0 0 1
vn -1 0 0
vn -1 0 0
vn -1 0 0
vn 0.7071068 0.7071068 0
vn 0.7071068 0.7071068 0
vn 0.7071068 0.7071068 0
vn 0 0.7071068 -0.7071068
vn 0 0.7071068 -0.7071068
vn 0 0.7071068 -0.7071068

vt 0.5 -0.5
vt -0.5 -0.5
vt 0.5 0.5
vt -0.5 0.5
vt 0.5 -0.5
vt -0.5 -0.5
vt -0.5 0.5
vt 0.5 -0.5
vt -0.5 -0.5
vt 0.5 0.5
vt 0.7071068 0.5
vt 0.7071068 -0.5
vt -0.7071068 -0.5
vt -0.5 -0.7071068
vt 0.5 -0.7071068
vt 0.5 0.7071068

g SlopeAngle (1)_0
usemtl Default_Prototype
f 3/3/3 4/4/4 2/2/2 1/1/1

g SlopeAngle (1)_1
usemtl Default_Prototype
f 7/7/7 6/6/6 5/5/5
f 10/10/10 9/9/9 8/8/8
f 13/13/13 12/12/12 11/11/11
f 14/14/14 15/15/15 16/16/16

