# Exported from ProBuilder
# http://www.procore3d.com/probuilder
# 11/9/2018 11:21:16 AM

mtllib ./Slope.mtl
o Slope

g Prism
v 0.5 -0.5 -0.5
v -0.5 -0.5 -0.5
v -0.5 0.5 -0.5
v -0.5 -0.5 -0.5
v -0.5 -0.5 0.5
v -0.5 0.5 -0.5
v -0.5 0.5 0.5
v -0.5 -0.5 0.5
v 0.5 -0.5 0.5
v -0.5 0.5 0.5
v 0.5 -0.5 0.5
v 0.5 -0.5 -0.5
v -0.5 0.5 0.5
v -0.5 0.5 -0.5
v 0.5 -0.5 -0.5
v -0.5 -0.5 -0.5
v 0.5 -0.5 0.5
v -0.5 -0.5 0.5

vn 0 0 -1
vn 0 0 -1
vn 0 0 -1
vn -1 0 0
vn -1 0 0
vn -1 0 0
vn -1 0 0
vn 0 0 1
vn 0 0 1
vn 0 0 1
vn 0.7071068 0.7071068 0
vn 0.7071068 0.7071068 0
vn 0.7071068 0.7071068 0
vn 0.7071068 0.7071068 0
vn 0 -1 0
vn 0 -1 0
vn 0 -1 0
vn 0 -1 0

vt -0.5 -0.5
vt 0.5 -0.5
vt 0.5 0.5
vt -0.5 -0.5
vt 0.5 -0.5
vt -0.5 0.5
vt 0.5 0.5
vt -0.5 -0.5
vt 0.5 -0.5
vt -0.5 0.5
vt -0.7071068 0.5
vt -0.7071068 -0.5
vt 0.7071068 0.5
vt 0.7071068 -0.5
vt 0.5 -0.5
vt -0.5 -0.5
vt 0.5 0.5
vt -0.5 0.5

g Prism_0
usemtl Default_Prototype
f 7/7/7 6/6/6 4/4/4 5/5/5
f 14/14/14 13/13/13 11/11/11 12/12/12
f 17/17/17 18/18/18 16/16/16 15/15/15

g Prism_1
usemtl Default_Prototype
f 1/1/1 2/2/2 3/3/3
f 8/8/8 9/9/9 10/10/10

